<svg xmlns="http://www.w3.org/2000/svg" width="260" height="76.821" viewBox="0 0 260 76.821">
  <g id="Flavor-logo" transform="translate(0.03 -0.038)">
    <g id="Group_366" data-name="Group 366" transform="translate(-295.7 -70.981)">
      <path id="Path_298" data-name="Path 298" d="M414.077,114.075H402.193v10.918H393.8V96.1h21.218v6.437h-12.85v5.075h11.884v6.462Z" transform="translate(0 -1.129)" fill="#272727"/>
      <path id="Path_299" data-name="Path 299" d="M500.468,118.556h12.552v6.437H492.1V96.1h8.393v22.456Z" transform="translate(-73.963 -1.129)" fill="#272727"/>
      <path id="Path_300" data-name="Path 300" d="M606.75,119.942H596.4l-1.708,5.051H586.3L597.491,96.1h8.046l11.414,28.893h-8.418Zm-8.418-5.719h6.412l-3.144-8.938-.124-.545-.1.5Z" transform="translate(-144.84 -1.129)" fill="#272727"/>
      <path id="Path_301" data-name="Path 301" d="M711.706,116.922l.074.47.074-.371,6.091-20.9h8.74L716.51,125.018h-9.433L697,96.1h8.715Z" transform="translate(-228.133 -1.129)" fill="#272727"/>
      <path id="Path_302" data-name="Path 302" d="M844.254,109.925a15.853,15.853,0,0,1-1.758,7.527,12.115,12.115,0,0,1-4.927,5.051,15.69,15.69,0,0,1-14.385.025,12.058,12.058,0,0,1-4.927-5.026,15.815,15.815,0,0,1-1.758-7.551v-1.015a15.957,15.957,0,0,1,1.708-7.5,12.055,12.055,0,0,1,4.9-5.051,14.679,14.679,0,0,1,7.279-1.783,14.34,14.34,0,0,1,7.155,1.783,12.536,12.536,0,0,1,4.927,4.976,15.682,15.682,0,0,1,1.807,7.353v1.213Zm-8.418-1.015a10.21,10.21,0,0,0-1.436-5.893,4.621,4.621,0,0,0-4.011-2.08c-3.639,0-5.447,2.7-5.447,8.1v.867a10.686,10.686,0,0,0,1.362,5.843,4.59,4.59,0,0,0,4.135,2.129,4.483,4.483,0,0,0,3.912-2.08,10.029,10.029,0,0,0,1.485-5.694Z" transform="translate(-318.046)" fill="#272727"/>
      <path id="Path_303" data-name="Path 303" d="M955.286,115.436h-3.293v9.582H943.6V96.1h12.775c3.763,0,6.685.768,8.814,2.278a7.356,7.356,0,0,1,3.169,6.338,9.73,9.73,0,0,1-1.213,5.15,9.036,9.036,0,0,1-4.06,3.342l6.264,11.463v.322h-9.037Zm-3.293-6.462h4.382c2.4,0,3.615-1.089,3.615-3.268,0-2.1-1.287-3.144-3.862-3.144h-4.135Z" transform="translate(-413.678 -1.129)" fill="#272727"/>
    </g>
    <g id="Group_4" data-name="Group 4" transform="translate(-0.03 0.038)">
      <path id="Path_14" data-name="Path 14" d="M3315.7,229.03l-25.924,25.925-4.863,4.863-9.489,9.489-8.235-8.235,35.5-35.5a38.642,38.642,0,0,1,6.591,1.02A26.182,26.182,0,0,1,3315.7,229.03Z" transform="translate(-3267.19 -205.204)" fill="#fc0032"/>
      <path id="Path_15" data-name="Path 15" d="M3438.519,151.928l-8.8,8.8-3.96,3.96-.475.473-.433.433-1.92,1.92a26.189,26.189,0,0,0-6.42-2.44,38.647,38.647,0,0,0-6.591-1.02l2.018-2.02h0l.3-.3,18.047-18.048Z" transform="translate(-3374.419 -143.69)" fill="#fc0032"/>
      <path id="Path_16" data-name="Path 16" d="M3425.759,203.238l-.475.473-.433.433-1.92,1.92a26.19,26.19,0,0,0-6.42-2.44,38.647,38.647,0,0,0-6.591-1.02l2.018-2.02h0l.3-.3,5.285-5.285Z" transform="translate(-3374.419 -182.238)" fill="#cc052d"/>
      <path id="Path_17" data-name="Path 17" d="M3431.155,197.283l-11.844,11.978-6.226,6.226-17.157,17.157a38.31,38.31,0,0,1-6.482-1.012,26.362,26.362,0,0,1-6.5-2.48l39.97-40.1Z" transform="translate(-3354.157 -176.566)" fill="#fc0032"/>
      <path id="Path_18" data-name="Path 18" d="M3347.606,358.6l-7.561,7.561-.846.846-12.334,12.337-8.235-8.238,16-16a26.358,26.358,0,0,0,6.5,2.48A38.318,38.318,0,0,0,3347.606,358.6Z" transform="translate(-3305.835 -302.525)" fill="#fc0032"/>
      <path id="Path_19" data-name="Path 19" d="M3387.417,358.6l-7.561,7.561-8.235-8.235,2.818-2.818a26.359,26.359,0,0,0,6.5,2.48A38.311,38.311,0,0,0,3387.417,358.6Z" transform="translate(-3345.646 -302.525)" fill="#cc052d"/>
      <g id="Group_4-2" data-name="Group 4" transform="translate(12.179 11.495)">
        <path id="Path_20" data-name="Path 20" d="M3369.13,211.106l-6.226,6.226a19.973,19.973,0,0,1-19.333,19.333c-.212.007-.423.01-.637.01a19.921,19.921,0,0,1-14.135-5.855,20.044,20.044,0,0,1-2.236-2.659l-4.863,4.863a26.822,26.822,0,0,0,15.64,9.872,26.955,26.955,0,0,0,5.594.582,26.781,26.781,0,0,0,26.2-32.372ZM3328.8,202.55a19.912,19.912,0,0,1,12.695-5.793h0q.716-.052,1.438-.052a19.955,19.955,0,0,1,14.135,5.845,19.64,19.64,0,0,1,1.92,2.226l4.85-4.85a26.913,26.913,0,0,0-4.564-4.475,26.784,26.784,0,0,0-42.661,26.188l6.392-6.392A19.9,19.9,0,0,1,3328.8,202.55Z" transform="translate(-3316.156 -189.907)" fill="#262626"/>
      </g>
    </g>
  </g>
</svg>
